<svg width="27" height="26" viewBox="0 0 27 26" fill="#0057FF" xmlns="http://www.w3.org/2000/svg">
<path id="Vector" d="M7.7544 21.9802C8.83256 21.9802 9.71587 22.8823 9.71587 23.9967C9.71587 25.0979 8.83256 26 7.7544 26C6.66325 26 5.77994 25.0979 5.77994 23.9967C5.77994 22.8823 6.66325 21.9802 7.7544 21.9802ZM22.368 21.9802C23.4462 21.9802 24.3295 22.8823 24.3295 23.9967C24.3295 25.0979 23.4462 26 22.368 26C21.2769 26 20.3936 25.0979 20.3936 23.9967C20.3936 22.8823 21.2769 21.9802 22.368 21.9802ZM1.84427 0.0113598L4.94235 0.487631C5.38401 0.568558 5.70876 0.938696 5.74773 1.38976L5.99453 4.36148C6.0335 4.78734 6.37124 5.10574 6.78692 5.10574H24.3297C25.1221 5.10574 25.6417 5.38434 26.1613 5.9946C26.6809 6.60487 26.7718 7.48046 26.6549 8.27514L25.4209 16.978C25.1871 18.651 23.7842 19.8834 22.1345 19.8834H7.9625C6.23485 19.8834 4.80596 18.5316 4.66307 16.7804L3.468 2.31842L1.50653 1.97349C0.986937 1.88063 0.62322 1.36323 0.714149 0.832563C0.805078 0.289959 1.31168 -0.0695666 1.84427 0.0113598ZM20.0561 10.0131H16.4579C15.9123 10.0131 15.4836 10.4509 15.4836 11.0081C15.4836 11.552 15.9123 12.0031 16.4579 12.0031H20.0561C20.6016 12.0031 21.0303 11.552 21.0303 11.0081C21.0303 10.4509 20.6016 10.0131 20.0561 10.0131Z" fill="#0057FF"/>
</svg>
