<svg width="29" height="60" viewBox="0 0 29 60" fill="none" xmlns="http://www.w3.org/2000/svg">
<g id="Group 2">
<path id="Union" fill-rule="evenodd" clip-rule="evenodd" d="M3.14732 0.601415C2.24251 -0.0321399 0.995422 0.187756 0.361867 1.09257C-0.271688 1.99738 -0.0517918 3.24447 0.853019 3.87802L12.6179 12.1159C13.266 12.9598 14.4702 13.1512 15.3504 12.5349L27.5764 3.97412C28.4813 3.34056 28.7012 2.09347 28.0676 1.18866C27.434 0.283847 26.187 0.0639521 25.2821 0.697507L14.2834 8.39894L3.14732 0.601415Z" fill="#454545"/>
<path id="Union_2" fill-rule="evenodd" clip-rule="evenodd" d="M3.14732 15.9774C2.24251 15.3438 0.995422 15.5637 0.361867 16.4686C-0.271688 17.3734 -0.0517918 18.6205 0.853019 19.254L12.6179 27.4919C13.266 28.3358 14.4702 28.5272 15.3504 27.9109L27.5764 19.3501C28.4813 18.7166 28.7012 17.4695 28.0676 16.5646C27.434 15.6598 26.187 15.4399 25.2821 16.0735L14.2834 23.7749L3.14732 15.9774Z" fill="#8A8888"/>
<path id="Union_3" fill-rule="evenodd" clip-rule="evenodd" d="M3.14732 31.3534C2.24251 30.7198 0.995422 30.9397 0.361867 31.8445C-0.271688 32.7494 -0.0517918 33.9964 0.853019 34.63L12.6179 42.8679C13.266 43.7118 14.4702 43.9032 15.3504 43.2868L27.5764 34.7261C28.4813 34.0925 28.7012 32.8455 28.0676 31.9406C27.434 31.0358 26.187 30.8159 25.2821 31.4495L14.2834 39.1509L3.14732 31.3534Z" fill="#B1B1B1"/>
<path id="Union_4" fill-rule="evenodd" clip-rule="evenodd" d="M3.14732 46.7294C2.24251 46.0958 0.995422 46.3157 0.361867 47.2205C-0.271688 48.1253 -0.0517918 49.3724 0.853019 50.006L12.6179 58.2439C13.266 59.0878 14.4702 59.2792 15.3504 58.6628L27.5764 50.1021C28.4813 49.4685 28.7012 48.2214 28.0676 47.3166C27.434 46.4118 26.187 46.1919 25.2821 46.8255L14.2834 54.5269L3.14732 46.7294Z" fill="white"/>
</g>
</svg>
