<svg width="35" height="33" viewBox="0 0 35 33" fill="none" xmlns="http://www.w3.org/2000/svg">
<g id="Group 22">
<path id="Vector" d="M19.0124 2.22383C18.999 2.15137 18.9898 2.07819 18.9849 2.00465C18.9131 0.972427 19.6907 0.0773395 20.7235 0.00461905C21.7575 -0.0673727 22.6529 0.710692 22.7251 1.74291C22.7973 2.77514 22.0194 3.67022 20.9866 3.74294C20.9213 3.7479 20.8565 3.74877 20.7932 3.7463C20.7514 3.75708 20.7263 3.76218 20.6903 3.79395C20.584 3.9595 20.9607 3.92861 20.7046 4.65217C20.7046 4.65217 20.7028 4.73159 20.6744 4.81102C20.6543 5.08878 20.5474 5.91188 20.5321 6.35024C20.5865 6.41378 20.6018 6.44468 20.5958 6.59872C20.5716 6.80697 20.5237 7.31732 20.4469 7.64435C20.3817 7.92459 20.2672 7.97807 20.1749 8.04671C20.0451 8.62731 20.0108 9.10823 19.6779 9.81343C19.6477 10.348 19.6101 10.4936 19.4979 10.7546C19.4854 11.5417 19.5398 11.6588 19.0084 12.9051C18.8711 13.4881 19.0017 13.8913 19.1465 14.497C19.2946 15.1194 19.7056 15.3795 19.7667 16.017C19.9106 17.5181 19.8746 18.5402 19.5523 19.7172L19.8336 20.383C20.1828 20.543 21.049 20.9805 20.5687 21.673C21.2452 22.0283 22.2671 22.4056 23.11 23.1261C23.4491 23.4082 23.8072 23.7159 24.1287 24.077C24.7406 24.1723 24.6753 24.2208 25.1288 24.4993C26.4625 25.3164 28.6012 26.9374 29.8409 28.0851C30.0544 28.2097 30.1415 28.2994 30.3139 28.3898C30.3408 28.4414 30.3481 28.4533 30.3421 28.4673C30.2829 28.6171 30.2851 28.6215 30.2316 28.7408C30.2985 28.8147 30.4232 28.8838 30.4978 28.9485C30.5675 28.9702 30.5675 28.9369 30.687 28.9076C30.8427 29.0532 31.0355 29.1705 31.1046 29.1636C31.3156 29.1101 31.2796 29.1537 31.4579 28.9543C31.5221 28.8883 31.6296 28.9552 31.6296 28.9552C31.6965 28.8767 31.8405 28.7202 32.0324 28.6071C32.1855 28.5169 32.4778 28.5068 32.4778 28.5068C32.5756 28.5077 32.5573 28.6079 32.5488 28.6406C32.4383 28.6976 32.204 28.7602 32.0725 28.8571C31.7861 29.1531 31.5618 29.5524 31.5618 29.5524C32.1384 29.4737 32.4926 29.6167 32.9732 29.5616C33.2352 29.5465 33.4286 29.5634 33.7038 29.3643C33.7038 29.3643 33.9684 29.1761 34.2053 29.0763C34.4355 28.9761 34.6539 29.0295 34.8565 29.1766C34.9996 29.3379 35.0858 29.3388 34.8682 29.5666C34.7896 29.655 34.6757 29.7538 34.531 29.8969C34.2765 30.1482 33.9339 30.4831 33.5793 30.7603C33.2201 31.0405 32.8125 31.2922 32.558 31.4076C31.916 31.8686 32.0675 31.748 31.5628 32.2049C31.4991 32.2619 31.33 32.3638 31.2481 32.4181C31.049 32.5487 30.9869 32.4398 30.8571 32.2007C30.8571 32.2007 30.7977 32.1113 30.6997 31.9204C30.5927 31.7122 30.5123 31.4741 30.5449 31.478C30.4253 31.4628 29.8869 30.8321 29.8855 30.6969C29.7716 30.6708 29.286 30.2009 29.2687 30.1112L28.8384 29.7665C28.3462 29.8687 28.2334 29.5632 26.9334 28.6415C26.7851 28.6388 26.556 28.5588 26.2275 28.3155C25.641 27.8459 24.2337 26.7837 23.9951 26.6623C23.7388 26.5318 23.4327 26.409 23.2449 26.2541C22.9636 26.2023 22.8097 26.1729 22.669 26.1337C22.5252 26.0943 22.3944 26.0435 22.0304 25.9948C21.4378 25.9212 20.8233 25.6761 20.2382 25.3835C19.9613 25.2523 19.72 25.1854 19.4816 25.083C18.9467 24.8572 18.488 24.6539 18.1326 24.5719C17.997 24.5585 17.3524 24.3652 17.0143 24.1681C16.8971 24.1077 16.8293 24.05 16.7523 24.0324C16.5748 23.9916 16.4609 24.0617 16.3807 24.0886C15.9471 24.3144 15.5411 24.5094 15.166 24.7111C14.8169 24.8976 14.4955 25.0914 14.1548 25.2874C13.8475 25.4648 13.4926 25.6319 13.1277 25.8061C13.1277 25.8061 12.0871 26.3272 11.5188 26.5298C11.0257 26.932 10.0179 27.6279 9.40273 27.9725C9.09807 28.1173 8.50627 28.4919 8.23327 28.5757C8.07751 28.7011 7.52261 29.0967 7.08816 29.423C6.75245 29.674 6.49884 29.8856 6.49884 29.8856C6.30386 30.0603 6.31713 30.1432 5.94641 29.9858C5.84345 30.0704 5.76397 30.123 5.69776 30.1715C5.43001 30.3656 5.40726 30.3188 5.3094 30.3137C5.12273 30.4752 5.09925 30.3917 4.93606 30.5775C4.82887 30.7434 4.93854 30.7037 4.71249 30.7842C4.66481 30.8025 4.6422 30.8601 4.60545 30.892C4.42374 31.0415 4.42301 31.4641 3.98769 31.4943C3.73569 31.674 3.80014 31.891 3.60764 31.8815C3.61945 32.0679 3.26697 32.34 3.20338 32.3391C2.64833 32.5305 2.60983 32.1227 1.94351 32.427C1.85732 32.4665 1.73088 32.5754 1.56433 32.6068C1.27135 32.6621 0.917259 32.6042 0.701276 32.4371C0.361332 32.1752 0.0483679 31.6699 0.0483679 31.6699C-0.0596966 31.4147 0.00315872 31.2534 0.340477 31.0122C0.481063 30.9229 0.507022 30.856 0.743131 30.8398C0.860383 30.7955 0.828445 30.8633 1.03787 30.7882C1.1592 30.7447 1.1592 30.7757 1.40362 30.7549C1.45962 30.7171 1.53837 30.7037 1.64381 30.6695C1.83719 30.6058 2.02561 30.5348 2.02561 30.5348C2.02561 30.5348 2.0749 30.4854 2.26085 30.503C2.4182 30.4386 2.57979 30.343 2.66262 30.3137C2.64162 30.0647 2.66846 30.0763 2.78396 29.9761C2.9279 29.8521 2.95386 29.8723 3.06105 29.9491C3.10626 29.923 3.12799 29.9141 3.12303 29.8762C3.10538 29.7465 2.99411 29.6855 3.02765 29.3996C2.97821 29.285 2.90544 29.1437 2.92134 29.0583C2.94482 28.9662 2.96742 28.9217 3.02342 28.8924C3.08292 28.8608 3.10217 28.9035 3.13397 28.9392C3.19084 29.0054 3.23693 29.2012 3.23693 29.2012C3.25705 29.4221 3.32559 29.7082 3.54406 29.5467C3.67298 29.4162 3.69806 29.0683 3.96086 29.1428L4.1484 29.3057C4.30751 29.1562 4.31509 29.1562 4.41047 29.096C4.41047 29.096 4.26142 28.9455 4.39209 28.8283C4.48164 28.7487 4.58955 28.6917 4.78133 28.4794C5.3078 27.8981 5.57818 27.6412 6.14752 27.1726C7.28344 26.2391 8.57584 25.5843 9.39704 25.2587C9.66479 24.919 9.92526 24.6933 10.5195 24.6363C11.226 23.4442 12.5787 22.3796 12.8894 22.2099C13.1421 21.7521 13.2518 21.8008 13.5824 21.7088C13.8443 21.499 13.9038 21.499 14.0211 21.2798C14.135 20.8274 13.7583 19.6186 14.7199 19.5575C14.9242 19.2691 14.8732 19.3383 15.1008 19.0657C14.9468 18.6859 14.8832 18.3682 14.8414 18.0945C14.8338 18.0627 14.4597 17.7993 14.5659 17.4553C14.4069 17.2663 14.1097 16.8252 14.0168 16.6185C13.9742 16.6194 13.939 16.6034 13.8921 16.597C13.8436 16.5892 13.7832 16.592 13.7155 16.5862C13.5658 16.9724 13.4026 17.0011 13.1363 17.0863C12.6608 18.0989 12.4934 18.5275 11.1482 19.3646C10.6142 19.9621 10.4434 20.6278 10.4459 20.6179C10.3539 20.8152 10.3864 21.0914 10.435 21.2394C10.3647 21.4586 10.383 21.4803 10.383 21.4803C10.4123 21.5631 10.4886 21.6727 10.5822 21.696C10.7438 21.7387 10.9054 21.7319 10.8961 21.9117C10.8744 22.1367 10.5789 22.0998 10.439 22.0748C9.90076 21.9894 10.0708 21.6389 9.72663 21.7559C9.46296 21.9283 9.36423 22.4369 8.93386 22.3709C8.87699 22.3333 8.89449 22.2221 8.93299 22.1418C8.99337 22.0163 9.10041 21.9126 9.03682 21.8655C8.7562 21.9553 8.47605 22.0465 8.19637 22.1392C7.9327 22.211 7.6438 22.0797 7.90339 21.9064C8.02399 21.8597 8.19637 21.8009 8.409 21.6648C8.409 21.6648 8.51852 21.5159 8.30852 21.5903C8.07912 21.6722 7.74093 21.7233 7.49825 21.6966C7.49825 21.6966 6.99512 21.6306 6.93066 21.5911C6.86533 21.5516 6.80597 21.3962 6.96333 21.3971C7.16254 21.3989 7.66144 21.3401 8.0482 21.2372C8.23487 21.1645 8.58984 20.9547 8.78905 20.8559C8.78905 20.8559 9.00503 20.5414 9.12389 20.4794C9.32222 20.2512 9.48964 20.1164 9.66538 19.8829C9.83703 19.529 10.0145 18.9688 10.5828 18.1012C10.8456 17.7013 11.1722 17.2356 11.5831 16.8191C11.5831 16.8191 11.6894 16.1525 12.2244 15.6781C12.3425 15.4004 12.5216 15.0733 12.6982 14.7705C12.7669 14.6542 12.8321 14.5531 12.8974 14.4426C13.0632 14.1825 13.2373 13.6982 13.8835 13.622C13.8835 13.622 14.1598 13.418 14.2661 13.273C14.4319 13.1316 14.3941 12.9117 14.5289 12.7568C14.3229 12.5561 13.7965 12.1788 13.7453 11.6543C13.6909 11.0981 13.8892 10.6405 14.2258 10.3018C14.5992 9.9287 14.9926 9.74216 15.4705 9.77058C16.0673 9.85919 16.1803 10.0567 16.3703 10.2524C16.5528 10.438 16.6206 10.3185 16.6976 10.536C17.1982 10.669 17.1705 10.6104 17.1663 10.9786C17.2433 11.0822 17.3722 11.1785 17.3705 11.3935C17.5388 11.0446 17.5722 10.9803 18.0218 10.5963C18.1281 10.2843 18.2003 9.97737 18.2936 9.66536C18.3813 9.37681 18.4902 9.07981 18.5746 8.8564C18.4851 8.22567 18.669 8.12118 18.9144 7.56827C18.871 7.4922 18.8803 7.47049 18.8987 7.34574C18.9941 6.98024 19.1431 6.4967 19.2318 6.18134C19.2318 6.18134 19.2611 6.05586 19.3909 6.04668C19.5032 5.64767 19.6715 4.90487 19.6998 4.75345C19.8153 4.33608 19.7407 4.20215 19.6521 3.96708C19.6236 3.89013 19.6369 3.78054 19.5878 3.69514C19.4479 3.45177 19.2974 3.13553 19.1953 2.90965C19.1291 2.76581 19.0244 2.22369 19.0244 2.22369C18.9346 1.94694 19.0124 2.22383 19.0124 2.22383Z" fill="#9B9B9B"/>
</g>
</svg>
