<svg width="50" height="18" viewBox="0 0 50 18" fill="none" xmlns="http://www.w3.org/2000/svg">
<g id="&#240;&#159;&#166;&#134; icon &#34;brand nike&#34;">
<path id="Vector" d="M50 0.447039L44.8006 2.64676C34.352 7.04621 23.9033 11.4957 13.4546 15.8951C10.8549 16.945 8.25522 17.7949 5.40557 17.6949C2.8059 17.5949 0.656168 16.0451 0.15623 13.7454C-0.0937383 12.5455 -0.0437445 11.3457 0.306212 10.1958C1.35608 6.29631 3.90576 3.39667 6.55543 0.497033C6.10549 1.74688 5.60555 2.99672 5.40557 4.34655C4.85564 7.69613 6.8054 10.0458 10.155 10.1458C12.9546 10.2958 15.5043 9.34593 18.104 8.64601C28.6527 5.89636 39.1514 3.09671 49.65 0.297058H49.95C49.95 0.347052 50 0.397046 50 0.447039Z" fill="#9B9B9B"/>
</g>
</svg>
