<svg width="49" height="25" viewBox="0 0 49 25" fill="none" xmlns="http://www.w3.org/2000/svg">
<g id="Group 24">
<path id="Vector" d="M26.4092 0.0833466C26.2488 0.10703 26.0946 0.69748 25.7848 1.0052C25.5584 1.22684 25.2752 1.21345 25.1252 1.48785C25.0681 1.58993 25.0865 1.76519 25.0222 1.93277C24.8953 2.26907 24.4504 2.29896 24.4504 2.66499C24.4487 3.06059 24.8211 3.13572 25.1444 3.41682C25.3965 3.64222 25.4207 3.79787 25.7258 3.90763C25.9868 3.99583 26.3746 3.70673 26.7238 3.81078C27.01 3.89571 27.2842 3.95712 27.3492 4.25161C27.4064 4.5234 27.3451 4.94366 26.9975 4.89515C26.8804 4.88175 26.372 4.71107 25.7487 4.77755C24.9954 4.86313 24.1363 5.10862 24.0521 5.94865C24.0058 6.41741 24.5864 6.97062 25.147 6.85809C25.5341 6.7823 25.3511 6.32497 25.5615 6.10332C25.8384 5.81863 27.4064 7.0959 28.8631 7.0959C29.4766 7.0959 29.933 6.94074 30.3862 6.46625C30.4287 6.42967 30.4801 6.35224 30.5456 6.34702C30.6075 6.35224 30.7152 6.41317 30.7508 6.43897C31.9238 7.38206 32.8112 9.27444 37.1245 9.296C37.7315 9.2996 38.4219 9.58951 38.9865 10.104C39.4898 10.5692 39.7836 11.2936 40.0699 12.0279C40.5019 13.1298 41.2748 14.2019 42.4481 15.3944C42.5118 15.4584 43.4777 16.2091 43.555 16.2649C43.5669 16.2736 43.6381 16.4427 43.6133 16.5371C43.5849 17.2528 43.4808 19.3323 45.0313 19.4268C45.4103 19.4457 45.3113 19.1791 45.3113 18.9962C45.3103 18.6336 45.2443 18.2738 45.4349 17.9025C45.6959 17.3926 44.8812 17.1579 44.9049 16.0549C44.9219 15.2325 44.231 15.3728 43.8808 14.7463C43.6788 14.3833 43.4993 14.1909 43.5122 13.747C43.5911 11.2488 42.9805 9.60699 42.6764 9.20372C42.4387 8.89959 42.2423 8.77889 42.4592 8.6381C43.7536 7.78272 44.0469 6.9881 44.0469 6.9881C44.7354 5.37061 45.3541 3.89326 46.2075 3.24254C46.379 3.10795 46.82 2.779 47.0902 2.65013C47.8869 2.27463 48.3055 2.04678 48.5371 1.82203C48.9027 1.46564 49.1924 0.721653 48.8413 0.270853C48.4052 -0.28546 47.6506 0.155867 47.3182 0.3535C44.9391 1.76519 44.5884 4.2557 43.7644 5.68617C43.1069 6.82869 42.0379 7.66822 41.0821 7.73682C40.3664 7.78991 39.5935 7.64503 38.8247 7.30725C36.9545 6.48732 35.9314 5.42892 35.689 5.24158C35.1867 4.85382 31.2865 1.02431 28.1257 0.868C28.1257 0.868 27.7334 0.0822033 27.6349 0.06979C27.4039 0.0399 27.1672 0.538557 26.9975 0.596867C26.8381 0.64946 26.5701 0.05705 26.4092 0.0833466ZM12.4958 22.9376C12.1984 22.9304 11.9457 22.6866 11.9457 22.3849L11.9467 12.5261H8.69718V23.393C8.69718 23.9261 9.1287 24.3602 9.65839 24.3602H15.337C15.8701 24.3602 16.2966 23.9261 16.2966 23.393V12.5259H13.0502L13.0476 22.3849C13.0476 22.6866 12.7949 22.9304 12.4958 22.9376ZM23.3741 12.5261H18.4572C17.8744 12.5261 17.4006 12.9993 17.4006 13.5871V24.3602H20.6532V14.4782C20.6536 14.4065 20.6682 14.3356 20.6961 14.2695C20.7239 14.2034 20.7645 14.1435 20.8156 14.0931C20.8666 14.0427 20.9271 14.0029 20.9935 13.9759C21.06 13.9488 21.1311 13.9352 21.2028 13.9356C21.5061 13.9356 21.75 14.1699 21.7565 14.4699V24.3602H24.9954V14.4699C24.9995 14.1699 25.2428 13.9358 25.546 13.9358C25.846 13.9358 26.0948 14.1754 26.0968 14.4781V24.3602H29.3494V13.5871C29.3494 12.9993 28.8739 12.5259 28.2923 12.5259H23.3743M6.53007 21.3866H3.24723V24.3602H0V12.5261H6.55065C7.13701 12.5261 7.59484 13.0025 7.59484 13.592V20.3199C7.59523 20.4599 7.56796 20.5987 7.5146 20.7281C7.46125 20.8576 7.38285 20.9753 7.28391 21.0744C7.18497 21.1736 7.06743 21.2522 6.93804 21.3058C6.80865 21.3594 6.66996 21.3869 6.5299 21.3868L6.53007 21.3866ZM4.3494 14.4988C4.35038 14.4257 4.3369 14.3531 4.30975 14.2851C4.2826 14.2172 4.24231 14.1553 4.19118 14.103C4.14006 14.0507 4.07912 14.009 4.01184 13.9802C3.94456 13.9515 3.87228 13.9364 3.79913 13.9356H3.24739V19.9212H3.79913C4.08595 19.9212 4.35202 19.6933 4.3494 19.3653V14.4988Z" fill="#9B9B9B"/>
<path id="Vector_2" d="M34.8011 24.3603V21.3892H33.6971V24.3603H30.4512V13.5871C30.4512 12.9993 30.925 12.5259 31.5078 12.5259H36.9909C37.5746 12.5259 38.048 12.9993 38.048 13.5871V24.3603H34.8011ZM34.8011 19.9233V14.474C34.7934 14.173 34.551 13.9416 34.2479 13.9416C33.9476 13.9416 33.7002 14.1821 33.6971 14.4828V19.9233H34.8011Z" fill="#9B9B9B"/>
</g>
</svg>
